# xmcd CD database file
#
# Track frame offsets:
#	180
#	16575
#	32232
#	44356
#
# Disc length: 833 seconds
#
# Revision: 0
# Processed by: cddbd v1.5.2PL0 Copyright (c) Steve Scherf et al.
# Submitted via: CDex 1.70beta2
#
DISCID=25033f04
DTITLE=Sky Tune - That's Country
DYEAR=1900
DGENRE=Country
TTITLE0=That's how I got to Memphis
TTITLE1=Big Heart
TTITLE2=Should've asked her faster
TTITLE3=Cowboy Peyton place
EXTD=
EXTT0=
EXTT1=
EXTT2=
EXTT3=
PLAYORDER=
